<?xml version="1.0" encoding="utf-8"?>
<!-- Generator: Adobe Illustrator 24.1.1, SVG Export Plug-In . SVG Version: 6.00 Build 0)  -->
<svg version="1.1" id="Layer_1" xmlns="http://www.w3.org/2000/svg" xmlns:xlink="http://www.w3.org/1999/xlink" x="0px" y="0px"
	 viewBox="0 0 448 512" style="enable-background:new 0 0 448 512;" xml:space="preserve">
<style type="text/css">
	.st0{fill:none;stroke:#000000;stroke-width:15;stroke-miterlimit:10;}
</style>
<path class="st0" d="M187.8,291.7c0,18.6-13.5,24.6-30.1,24.6h-43.5v-51.1h44.4C176.6,265.3,187.8,272.7,187.8,291.7L187.8,291.7z
	 M180.4,212.3c0-17.1-13.2-21.1-27.9-21.1h-38.3v43.2h41.2C170.1,234.4,180.4,228,180.4,212.3L180.4,212.3z M308,234.7
	c-17.6,0-29.4,11-30.6,28.7h60C335.8,245.5,326.5,234.7,308,234.7L308,234.7z M440.1,86.2v339.7c0,25.5-20.7,46.3-46.3,46.3H54.2
	c-25.5,0-46.3-20.7-46.3-46.3V86.2c0-25.5,20.7-46.3,46.3-46.3h339.7C419.4,39.9,440.1,60.6,440.1,86.2z M270,187.5h75v-18.2h-75
	V187.5z M228.5,294c0-23.3-11-43.3-33.8-49.8c16.6-7.9,25.2-17.1,25.2-35.7c0-36.9-27.5-45.8-59.3-45.8H73.4v185.3h89.8
	C197,347.7,228.5,331.5,228.5,294z M374.6,279.7c0-39.6-23.3-72.8-65.3-72.8c-40.9,0-68.6,30.7-68.6,71c0,41.8,26.3,70.4,68.6,70.4
	c32,0,52.7-14.4,62.8-45.2h-32.5c-3.5,11.4-17.9,17.5-29.2,17.5c-21.6,0-32.9-12.6-32.9-34h96.7
	C374.4,284.4,374.6,281.9,374.6,279.7L374.6,279.7z"/>
</svg>
