<?xml version="1.0" encoding="utf-8"?>
<!-- Generator: Adobe Illustrator 24.1.1, SVG Export Plug-In . SVG Version: 6.00 Build 0)  -->
<svg version="1.1" id="Layer_1" xmlns="http://www.w3.org/2000/svg" xmlns:xlink="http://www.w3.org/1999/xlink" x="0px" y="0px"
	 viewBox="0 0 448 512" style="enable-background:new 0 0 448 512;" xml:space="preserve">
<style type="text/css">
	.st0{fill:none;stroke:#000000;stroke-width:15;stroke-miterlimit:10;}
</style>
<path class="st0" d="M224.1,145.1c-61.3,0-110.8,49.4-110.8,110.8s49.5,110.8,110.8,110.8s110.8-49.4,110.8-110.8
	S285.4,145.1,224.1,145.1z M224.1,327.9c-39.6,0-72-32.3-72-72s32.3-72,72-72s72,32.3,72,72S263.7,327.9,224.1,327.9L224.1,327.9z
	 M365.2,140.6c0,14.3-11.6,25.8-25.8,25.8c-14.3,0-25.8-11.6-25.8-25.8s11.6-25.8,25.8-25.8C353.6,114.8,365.2,126.4,365.2,140.6z
	 M438.5,166.9c-1.7-34.6-9.6-65.2-34.9-90.5c-25.3-25.3-55.9-33.2-90.5-34.9c-35.7-2-142.6-2-178.1,0c-34.5,1.6-65.2,9.5-90.5,34.8
	s-33.2,55.9-34.9,90.5c-2,35.7-2,142.6,0,178.1c1.7,34.6,9.6,65.2,34.9,90.5c25.4,25.3,55.9,33.2,90.5,34.9c35.7,2,142.6,2,178.1,0
	c34.6-1.7,65.2-9.6,90.5-34.9c25.3-25.3,33.2-55.9,34.9-90.5C440.6,309.2,440.6,202.6,438.5,166.9L438.5,166.9z M392.4,383.1
	c-7.5,18.9-22,33.4-41.1,41.1c-28.5,11.3-95.8,8.7-127.2,8.7s-99,2.5-127.2-8.7c-18.9-7.5-33.4-22-41.1-41.1
	c-11.3-28.5-8.7-95.8-8.7-127.2s-2.5-99,8.7-127.2c7.5-18.9,22-33.4,41.1-41.1c28.5-11.3,95.8-8.7,127.2-8.7s99-2.5,127.2,8.7
	c18.9,7.5,33.4,22,41.1,41.1c11.3,28.5,8.7,95.8,8.7,127.2S403.7,354.9,392.4,383.1z"/>
</svg>
