<?xml version="1.0" encoding="utf-8"?>
<!-- Generator: Adobe Illustrator 24.1.1, SVG Export Plug-In . SVG Version: 6.00 Build 0)  -->
<svg version="1.1" id="Layer_1" xmlns="http://www.w3.org/2000/svg" xmlns:xlink="http://www.w3.org/1999/xlink" x="0px" y="0px"
	 viewBox="0 0 448 512" style="enable-background:new 0 0 448 512;" xml:space="preserve">
<style type="text/css">
	.st0{fill:none;stroke:#000000;stroke-width:15;stroke-miterlimit:10;}
</style>
<path class="st0" d="M409.3,39.7H38.6c-17,0-30.8,14-30.8,31.2v370.2c0,17.2,13.8,31.2,30.8,31.2h370.9c17,0,30.9-14,30.9-31.2V71
	C440.3,53.8,426.3,39.7,409.3,39.7z M138.4,410.5H74.3V204h64.2L138.4,410.5L138.4,410.5z M106.4,175.9c-20.6,0-37.1-16.7-37.1-37.1
	s16.5-37.2,37.1-37.2c20.5,0,37.1,16.7,37.1,37.1C143.6,159.3,127,175.9,106.4,175.9z M378.8,410.5h-64.1V310
	c0-23.9-0.5-54.7-33.3-54.7c-33.4,0-38.5,26.1-38.5,53.1v102.2h-64.1V204h61.6v28.3h0.9c8.6-16.2,29.5-33.3,60.8-33.3
	c64.9,0,77,42.8,77,98.4L378.8,410.5L378.8,410.5z"/>
</svg>
